<svg width="43" height="43" viewBox="0 0 43 43" fill="none" xmlns="http://www.w3.org/2000/svg">
<path d="M42.2126 24.9749L32.4831 15.2448L32.4912 15.2522C32.7633 14.2444 32.9219 13.1882 32.9219 12.0938C32.9219 5.41531 27.5072 0 20.8281 0C19.7108 0 18.6338 0.163938 17.6078 0.447469C17.1711 0.158562 16.6565 0 16.125 0H2.6875C1.20333 0 0 1.20333 0 2.6875V16.125C0 16.8379 0.283531 17.5212 0.787438 18.0251L24.9749 42.2126C25.499 42.7373 26.1877 43 26.875 43C27.5623 43 28.251 42.7373 28.7751 42.2126L42.2126 28.7751C43.2627 27.7263 43.2627 26.0237 42.2126 24.9749ZM20.8281 1.34442C26.7655 1.34442 31.5781 6.15706 31.5781 12.0944C31.5781 12.7683 31.4995 13.4973 31.3799 14.1423L30.1907 12.9531L30.1746 12.9363C30.2001 12.6682 30.2344 12.3511 30.2344 12.0944C30.2344 6.90016 26.0231 2.68817 20.8281 2.68817C20.5379 2.68817 20.253 2.70564 19.9695 2.73117C19.4185 2.78089 18.8837 2.88436 18.363 3.02545C15.9947 3.66709 14.0025 5.20837 12.7683 7.26364C12.5365 7.64862 12.3249 8.04638 12.1495 8.46495C11.6819 9.58228 11.4219 10.8078 11.4219 12.0944C11.4219 12.509 11.5099 13.3152 11.5099 13.3152C11.5099 13.3152 11.0161 13.4375 10.75 13.4375C10.5464 13.4375 10.3502 13.4106 10.1601 13.3676C10.1346 13.3623 10.1379 13.3623 10.1601 13.3676C10.111 12.949 10.0781 12.5264 10.0781 12.0944C10.0781 10.6714 10.361 9.31689 10.8629 8.07459C11.0429 7.62981 11.2505 7.20183 11.4857 6.7893C12.7616 4.54725 14.8202 2.81516 17.2907 1.95314C17.7745 1.78383 18.2703 1.64341 18.7829 1.54531C19.4447 1.41631 20.128 1.34442 20.8281 1.34442ZM28.8671 11.6295L21.2931 4.05544C25.3734 4.28858 28.6333 7.54852 28.8671 11.6295ZM13.4375 10.75C13.4375 11.4158 13.1882 12.0165 12.7851 12.4828C12.7797 12.3538 12.7656 12.2261 12.7656 12.0944C12.7656 11.2203 12.9087 10.3811 13.1661 9.59236C13.3354 9.94442 13.4375 10.3341 13.4375 10.75ZM8.73438 12.0938C8.73438 12.2355 8.74916 12.3746 8.7552 12.515C8.33259 12.0427 8.0625 11.434 8.0625 10.75C8.0625 9.81139 8.54625 8.98633 9.27591 8.50594C8.92384 9.64006 8.73438 10.8447 8.73438 12.0938ZM41.2625 27.825L27.8244 41.2625C27.5711 41.5165 27.2338 41.6562 26.875 41.6562C26.5162 41.6562 26.1789 41.5165 25.925 41.2625L1.73747 17.075C1.48753 16.8244 1.34375 16.4777 1.34375 16.125V2.6875C1.34375 1.94575 1.94642 1.34375 2.6875 1.34375H15.304C12.9887 2.53633 11.1148 4.45252 9.96928 6.79602C8.11692 7.1595 6.71875 8.79081 6.71875 10.75C6.71875 12.9759 8.52408 14.7812 10.75 14.7812C12.9759 14.7812 14.7812 12.9759 14.7812 10.75C14.7812 9.75025 14.4151 8.8365 13.8117 8.13237C14.9862 6.05762 17.0515 4.56069 19.4897 4.15219L41.2625 25.925C41.5165 26.1789 41.6562 26.5162 41.6562 26.875C41.6562 27.2338 41.5165 27.5711 41.2625 27.825Z" fill="#EEEEEE"/>
<path d="M33.6759 25.4507C32.8898 24.6647 31.6112 24.664 30.8251 25.4501L25.4609 30.8143C24.6754 31.5997 24.6465 32.9079 25.4326 33.694C26.2174 34.4801 27.5208 34.4559 28.3069 33.6698L33.6765 28.3015H33.6752C34.4613 27.5154 34.4613 26.2362 33.6759 25.4507ZM32.7252 27.3515L27.377 32.6996C27.1143 32.9623 26.6434 33.0067 26.3827 32.7439C26.12 32.4812 26.1542 32.0224 26.4169 31.7597L31.7758 26.4008C32.0385 26.1381 32.4631 26.1381 32.7258 26.4008C32.9879 26.6628 32.9879 27.0888 32.7252 27.3515Z" fill="#EEEEEE"/>
<path d="M28.3014 22.927C29.0875 22.1409 29.0875 20.8617 28.302 20.0762C27.5159 19.2901 26.2374 19.2895 25.4513 20.0756L20.087 25.4398C19.3016 26.2252 19.2727 27.5334 20.0588 28.3195C20.8436 29.1056 22.147 29.0814 22.9331 28.2953L28.3027 22.927H28.3014ZM27.3513 21.977L22.0032 27.3251C21.7405 27.5878 21.2695 27.6321 21.0088 27.3694C20.7461 27.1067 20.7804 26.6478 21.0431 26.3851L26.402 21.0263C26.6647 20.7636 27.0893 20.7636 27.352 21.0263C27.614 21.2883 27.614 21.7143 27.3513 21.977Z" fill="#EEEEEE"/>
<path d="M22.9234 17.5491C23.7095 16.763 23.7095 15.4837 22.9241 14.6983C22.138 13.9122 20.8594 13.9115 20.0733 14.6976L14.7091 20.0619C13.9237 20.8473 13.8948 22.1554 14.6809 22.9415C15.4656 23.7276 16.7691 23.7034 17.5552 22.9174L22.9248 17.5491H22.9234ZM21.9734 16.599L16.6253 21.9472C16.3626 22.2099 15.8916 22.2542 15.6309 21.9915C15.3682 21.7288 15.4025 21.2699 15.6652 21.0072L21.024 15.6483C21.2867 15.3856 21.7114 15.3856 21.9741 15.6483C22.2361 15.9104 22.2361 16.3363 21.9734 16.599Z" fill="#EEEEEE"/>
</svg>
