<svg width="115" height="107" viewBox="0 0 115 107" fill="none" xmlns="http://www.w3.org/2000/svg">
<path d="M57.2587 104L2 42.4151M57.2587 104L113 41.6934M57.2587 104L32.163 34.9575M57.2587 104L82.5957 34.9575M2 42.4151V20.283M2 42.4151L32.163 34.9575M2 20.283L23.9587 2M2 20.283L32.163 34.9575M23.9587 2L32.163 34.9575M23.9587 2H57.3794M90.8 2L113 20.283M90.8 2H57.3794M90.8 2L82.5957 34.9575M113 20.283V41.6934M113 20.283L82.5957 34.9575M113 41.6934L82.5957 34.9575M32.163 34.9575L57.3794 2M32.163 34.9575H82.5957M82.5957 34.9575L57.3794 2M32.163 61.5955L20.9557 47.8427" stroke="#BBD1EC" stroke-opacity="0.3" stroke-width="4"/>
</svg>
